<?xml version="1.0" encoding="UTF-8" standalone="no"?>
<?xml-stylesheet type="text/css" href="../../../content.css"?>
<svg xmlns:rdf="http://www.w3.org/1999/02/22-rdf-syntax-ns#" xmlns="http://www.w3.org/2000/svg" height="125" width="375" version="1.1" xmlns:cc="http://creativecommons.org/ns#" xmlns:xlink="http://www.w3.org/1999/xlink" xmlns:dc="http://purl.org/dc/elements/1.1/">
 <metadata>
  <rdf:RDF>
   <cc:Work rdf:about="">
    <dc:format>image/svg+xml</dc:format>
    <dc:type rdf:resource="http://purl.org/dc/dcmitype/StillImage"/>
   </cc:Work>
  </rdf:RDF>
 </metadata>
 <defs>
  <filter id="bigBlur" height="1.972" width="1.972" y="-.486" x="-.486" color-interpolation-filters="sRGB">
   <feGaussianBlur stdDeviation="24.304"/>
  </filter>
  <radialGradient id="radialGradient9067" gradientUnits="userSpaceOnUse" cy="483.79" cx="251.43" r="60">
   <stop stop-color="#aa3600" offset="0"/>
   <stop stop-color="#ffc57d" offset="1"/>
  </radialGradient>
  <radialGradient id="radialGradient9069" gradientUnits="userSpaceOnUse" cy="483.79" cx="251.43" gradientTransform="matrix(.10482 0 0 .10482 25.906 819.39)" r="60">
   <stop stop-color="#ffc57d" offset="0"/>
   <stop stop-color="#aa3600" offset="1"/>
  </radialGradient>
 </defs>
 <path d="m25.788 62.46c4.422-4.42 17.659-19.44 39.442-19.44s34.939 14.665 39.716 19.442 18.501 19.442 40.284 19.442 35.205-14.647 40-19.442 18.216-19.442 40-19.442c21.783 0 34.8 14.242 40 19.442s18.217 19.442 40 19.442 35.147-15.147 39.442-19.442" stroke="#999" stroke-width="1.115" fill="none"/>
 <g id="Tears" transform="translate(-26.767 -807.36)">
  <path d="m311.43 483.79c0 33.137-26.863 60-60 60s-60-26.863-60-60 26.863-60 60-60 60 26.863 60 60z" transform="matrix(.18815 0 0 .18815 4.954 779.07)" filter="url(#bigBlur)" fill="url(#radialGradient9067)"/>
  <path d="m311.43 483.79c0 33.137-26.863 60-60 60s-60-26.863-60-60 26.863-60 60-60 60 26.863 60 60z" transform="matrix(.10482 0 0 .10482 25.906 819.39)" stroke="#ffc57d" stroke-width="8.7" fill="none"/>
  <path fill="url(#radialGradient9069)" d="m58.55 870.1c0 3.4734-2.8158 6.2892-6.2892 6.2892s-6.2892-2.8158-6.2892-6.2892 2.8158-6.2892 6.2892-6.2892 6.2892 2.8158 6.2892 6.2892z"/>
 </g>
 <g id="Fear" transform="translate(.19430 -825.36)">
  <path d="m311.43 483.79c0 33.137-26.863 60-60 60s-60-26.863-60-60 26.863-60 60-60 60 26.863 60 60z" transform="matrix(.18815 0 0 .18815 4.954 779.07)" filter="url(#bigBlur)" fill="url(#radialGradient9067)"/>
  <path d="m311.43 483.79c0 33.137-26.863 60-60 60s-60-26.863-60-60 26.863-60 60-60 60 26.863 60 60z" transform="matrix(.10482 0 0 .10482 25.906 819.39)" stroke="#ffc57d" stroke-width="8.7" fill="none"/>
  <path fill="url(#radialGradient9069)" d="m58.55 870.1c0 3.4734-2.8158 6.2892-6.2892 6.2892s-6.2892-2.8158-6.2892-6.2892 2.8158-6.2892 6.2892-6.2892 6.2892 2.8158 6.2892 6.2892z"/>
  </g>
 </g>
 <g id="Regret" transform="translate(27.156 -825.36)">
  <path d="m311.43 483.79c0 33.137-26.863 60-60 60s-60-26.863-60-60 26.863-60 60-60 60 26.863 60 60z" transform="matrix(.18815 0 0 .18815 4.954 779.07)" filter="url(#bigBlur)" fill="url(#radialGradient9067)"/>
  <path d="m311.43 483.79c0 33.137-26.863 60-60 60s-60-26.863-60-60 26.863-60 60-60 60 26.863 60 60z" transform="matrix(.10482 0 0 .10482 25.906 819.39)" stroke="#ffc57d" stroke-width="8.7" fill="none"/>
  <path fill="url(#radialGradient9069)" d="m58.55 870.1c0 3.4734-2.8158 6.2892-6.2892 6.2892s-6.2892-2.8158-6.2892-6.2892 2.8158-6.2892 6.2892-6.2892 6.2892 2.8158 6.2892 6.2892z"/>
  </g>
 </g>
 <g id="Desert" transform="translate(54.117 -805.36)">
  <path d="m311.43 483.79c0 33.137-26.863 60-60 60s-60-26.863-60-60 26.863-60 60-60 60 26.863 60 60z" transform="matrix(.18815 0 0 .18815 4.954 779.07)" filter="url(#bigBlur)" fill="url(#radialGradient9067)"/>
  <path d="m311.43 483.79c0 33.137-26.863 60-60 60s-60-26.863-60-60 26.863-60 60-60 60 26.863 60 60z" transform="matrix(.10482 0 0 .10482 25.906 819.39)" stroke="#ffc57d" stroke-width="8.7" fill="none"/>
  <path fill="url(#radialGradient9069)" d="m58.55 870.1c0 3.4734-2.8158 6.2892-6.2892 6.2892s-6.2892-2.8158-6.2892-6.2892 2.8158-6.2892 6.2892-6.2892 6.2892 2.8158 6.2892 6.2892z"/>
  </g>
 </g>
 <g id="Duty" transform="translate(81.079 -789.36)">
  <path d="m311.43 483.79c0 33.137-26.863 60-60 60s-60-26.863-60-60 26.863-60 60-60 60 26.863 60 60z" transform="matrix(.18815 0 0 .18815 4.954 779.07)" filter="url(#bigBlur)" fill="url(#radialGradient9067)"/>
  <path d="m311.43 483.79c0 33.137-26.863 60-60 60s-60-26.863-60-60 26.863-60 60-60 60 26.863 60 60z" transform="matrix(.10482 0 0 .10482 25.906 819.39)" stroke="#ffc57d" stroke-width="8.7" fill="none"/>
  <path fill="url(#radialGradient9069)" d="m58.55 870.1c0 3.4734-2.8158 6.2892-6.2892 6.2892s-6.2892-2.8158-6.2892-6.2892 2.8158-6.2892 6.2892-6.2892 6.2892 2.8158 6.2892 6.2892z"/>
  </g>
 </g>
 <g id="Trust" transform="translate(108.04 -789.36)">
  <path d="m311.43 483.79c0 33.137-26.863 60-60 60s-60-26.863-60-60 26.863-60 60-60 60 26.863 60 60z" transform="matrix(.18815 0 0 .18815 4.954 779.07)" filter="url(#bigBlur)" fill="url(#radialGradient9067)"/>
  <path d="m311.43 483.79c0 33.137-26.863 60-60 60s-60-26.863-60-60 26.863-60 60-60 60 26.863 60 60z" transform="matrix(.10482 0 0 .10482 25.906 819.39)" stroke="#ffc57d" stroke-width="8.7" fill="none"/>
  <path fill="url(#radialGradient9069)" d="m58.55 870.1c0 3.4734-2.8158 6.2892-6.2892 6.2892s-6.2892-2.8158-6.2892-6.2892 2.8158-6.2892 6.2892-6.2892 6.2892 2.8158 6.2892 6.2892z"/>
  </g>
 </g>
 <g id="Moon" transform="translate(135 -809.36)">
  <path d="m311.43 483.79c0 33.137-26.863 60-60 60s-60-26.863-60-60 26.863-60 60-60 60 26.863 60 60z" transform="matrix(.18815 0 0 .18815 4.954 779.07)" filter="url(#bigBlur)" fill="url(#radialGradient9067)"/>
  <path d="m311.43 483.79c0 33.137-26.863 60-60 60s-60-26.863-60-60 26.863-60 60-60 60 26.863 60 60z" transform="matrix(.10482 0 0 .10482 25.906 819.39)" stroke="#ffc57d" stroke-width="8.7" fill="none"/>
  <path fill="url(#radialGradient9069)" d="m58.55 870.1c0 3.4734-2.8158 6.2892-6.2892 6.2892s-6.2892-2.8158-6.2892-6.2892 2.8158-6.2892 6.2892-6.2892 6.2892 2.8158 6.2892 6.2892z"/>
  </g>
 </g>
 <g id="Death" transform="translate(161.96 -825.36)">
  <path d="m311.43 483.79c0 33.137-26.863 60-60 60s-60-26.863-60-60 26.863-60 60-60 60 26.863 60 60z" transform="matrix(.18815 0 0 .18815 4.954 779.07)" filter="url(#bigBlur)" fill="url(#radialGradient9067)"/>
  <path d="m311.43 483.79c0 33.137-26.863 60-60 60s-60-26.863-60-60 26.863-60 60-60 60 26.863 60 60z" transform="matrix(.10482 0 0 .10482 25.906 819.39)" stroke="#ffc57d" stroke-width="8.7" fill="none"/>
  <path fill="url(#radialGradient9069)" d="m58.55 870.1c0 3.4734-2.8158 6.2892-6.2892 6.2892s-6.2892-2.8158-6.2892-6.2892 2.8158-6.2892 6.2892-6.2892 6.2892 2.8158 6.2892 6.2892z"/>
  </g>
 </g>
 <g id="Power" transform="translate(188.92 -825.36)">
  <path d="m311.43 483.79c0 33.137-26.863 60-60 60s-60-26.863-60-60 26.863-60 60-60 60 26.863 60 60z" transform="matrix(.18815 0 0 .18815 4.954 779.07)" filter="url(#bigBlur)" fill="url(#radialGradient9067)"/>
  <path d="m311.43 483.79c0 33.137-26.863 60-60 60s-60-26.863-60-60 26.863-60 60-60 60 26.863 60 60z" transform="matrix(.10482 0 0 .10482 25.906 819.39)" stroke="#ffc57d" stroke-width="8.7" fill="none"/>
  <path fill="url(#radialGradient9069)" d="m58.55 870.1c0 3.4734-2.8158 6.2892-6.2892 6.2892s-6.2892-2.8158-6.2892-6.2892 2.8158-6.2892 6.2892-6.2892 6.2892 2.8158 6.2892 6.2892z"/>
  </g>
 </g>
 <g id="Goddess" transform="translate(215.89 -805.36)">
  <path d="m311.43 483.79c0 33.137-26.863 60-60 60s-60-26.863-60-60 26.863-60 60-60 60 26.863 60 60z" transform="matrix(.18815 0 0 .18815 4.954 779.07)" filter="url(#bigBlur)" fill="url(#radialGradient9067)"/>
  <path d="m311.43 483.79c0 33.137-26.863 60-60 60s-60-26.863-60-60 26.863-60 60-60 60 26.863 60 60z" transform="matrix(.10482 0 0 .10482 25.906 819.39)" stroke="#ffc57d" stroke-width="8.7" fill="none"/>
  <path fill="url(#radialGradient9069)" d="m58.55 870.1c0 3.4734-2.8158 6.2892-6.2892 6.2892s-6.2892-2.8158-6.2892-6.2892 2.8158-6.2892 6.2892-6.2892 6.2892 2.8158 6.2892 6.2892z"/>
  </g>
 </g>
 <g id="Love" transform="translate(242.85 -789.36)">
  <path d="m311.43 483.79c0 33.137-26.863 60-60 60s-60-26.863-60-60 26.863-60 60-60 60 26.863 60 60z" transform="matrix(.18815 0 0 .18815 4.954 779.07)" filter="url(#bigBlur)" fill="url(#radialGradient9067)"/>
  <path d="m311.43 483.79c0 33.137-26.863 60-60 60s-60-26.863-60-60 26.863-60 60-60 60 26.863 60 60z" transform="matrix(.10482 0 0 .10482 25.906 819.39)" stroke="#ffc57d" stroke-width="8.7" fill="none"/>
  <path fill="url(#radialGradient9069)" d="m58.55 870.1c0 3.4734-2.8158 6.2892-6.2892 6.2892s-6.2892-2.8158-6.2892-6.2892 2.8158-6.2892 6.2892-6.2892 6.2892 2.8158 6.2892 6.2892z"/>
  </g>
 </g>
 <g id="Desire" transform="translate(269.81 -789.36)">
  <path d="m311.43 483.79c0 33.137-26.863 60-60 60s-60-26.863-60-60 26.863-60 60-60 60 26.863 60 60z" transform="matrix(.18815 0 0 .18815 4.954 779.07)" filter="url(#bigBlur)" fill="url(#radialGradient9067)"/>
  <path d="m311.43 483.79c0 33.137-26.863 60-60 60s-60-26.863-60-60 26.863-60 60-60 60 26.863 60 60z" transform="matrix(.10482 0 0 .10482 25.906 819.39)" stroke="#ffc57d" stroke-width="8.7" fill="none"/>
  <path fill="url(#radialGradient9069)" d="m58.55 870.1c0 3.4734-2.8158 6.2892-6.2892 6.2892s-6.2892-2.8158-6.2892-6.2892 2.8158-6.2892 6.2892-6.2892 6.2892 2.8158 6.2892 6.2892z"/>
  </g>
 </g>
 <g id="Devotion" transform="translate(296.77 -811.36)">
  <path d="m311.43 483.79c0 33.137-26.863 60-60 60s-60-26.863-60-60 26.863-60 60-60 60 26.863 60 60z" transform="matrix(.18815 0 0 .18815 4.954 779.07)" filter="url(#bigBlur)" fill="url(#radialGradient9067)"/>
  <path d="m311.43 483.79c0 33.137-26.863 60-60 60s-60-26.863-60-60 26.863-60 60-60 60 26.863 60 60z" transform="matrix(.10482 0 0 .10482 25.906 819.39)" stroke="#ffc57d" stroke-width="8.7" fill="none"/>
  <path fill="url(#radialGradient9069)" d="m58.55 870.1c0 3.4734-2.8158 6.2892-6.2892 6.2892s-6.2892-2.8158-6.2892-6.2892 2.8158-6.2892 6.2892-6.2892 6.2892 2.8158 6.2892 6.2892z"/>
  </g>
 </g>
</svg>
