<?xml version="1.0" encoding="UTF-8" standalone="no"?>
<svg xmlns:rdf="http://www.w3.org/1999/02/22-rdf-syntax-ns#" xmlns="http://www.w3.org/2000/svg" height="125" width="375" version="1.1" xmlns:cc="http://creativecommons.org/ns#" xmlns:xlink="http://www.w3.org/1999/xlink" xmlns:dc="http://purl.org/dc/elements/1.1/">
 <metadata>
  <rdf:RDF>
   <cc:Work rdf:about="">
    <dc:format>image/svg+xml</dc:format>
    <dc:type rdf:resource="http://purl.org/dc/dcmitype/StillImage"/>
    <dc:title/>
   </cc:Work>
  </rdf:RDF>
 </metadata>
 <defs>
  <filter id="bigBlur" height="1.972" width="1.972" y="-.486" x="-.486" color-interpolation-filters="sRGB">
   <feGaussianBlur stdDeviation="24.304"/>
  </filter>
  <filter id="littleBlur" color-interpolation-filters="sRGB">
   <feGaussianBlur stdDeviation="3.544"/>
  </filter>
  <radialGradient id="radialGradient9179" gradientUnits="userSpaceOnUse" cy="483.79" cx="251.43" r="60">
   <stop stop-color="#aa3600" offset="0"/>
   <stop stop-color="#ffc57d" offset="1"/>
  </radialGradient>
  <radialGradient id="radialGradient9181" gradientUnits="userSpaceOnUse" cy="483.79" cx="251.43" gradientTransform="matrix(.10482 0 0 .10482 25.906 859.39)" r="60">
   <stop stop-color="#ffc57d" offset="0"/>
   <stop stop-color="#aa3600" offset="1"/>
  </radialGradient>
 </defs>
 <path fill="none" d="m33.688 82.738h26.889m93.111-40h26.889m-26.889 40h26.889m93.111-40h26.889m-26.889 40h26.889m-266.89-40h26.889m41.001 22.9-28.726 14.016m28.726-20.016-28.726-13.97m39.996 19.97 28.726 14.016m-28.726-20.016 28.726-14.016m80.004 20.016-28.73 14m28.73-20-28.73-13.97m40 19.97 28.726 14.016m-28.726-20.016 28.726-14.016m80.004 20.016-28.73 14m28.73-20-28.73-13.97" stroke="#000"/>
 <g id="WinningSmile" transform="translate(-24.998 -787.36)">
  <path d="m311.43 483.79c0 33.137-26.863 60-60 60s-60-26.863-60-60 26.863-60 60-60 60 26.863 60 60z" transform="matrix(.18815 0 0 .18815 4.954 779.07)" filter="url(#bigBlur)" fill="url(#radialGradient9179)"/>
  <path fill="#fff" d="m58.55 850.1"/>
  <path d="m311.43 483.79c0 33.137-26.863 60-60 60s-60-26.863-60-60 26.863-60 60-60 60 26.863 60 60z" transform="matrix(.10482 0 0 .10482 25.906 819.39)" filter="url(#littleBlur)" stroke="#000" stroke-width="8.7" fill="none"/>
  <g transform="translate(0,-40)">
   <path fill="url(#radialGradient9181)" d="m58.55 910.1c0 3.4734-2.8158 6.2892-6.2892 6.2892s-6.2892-2.8158-6.2892-6.2892 2.8158-6.2892 6.2892-6.2892 6.2892 2.8158 6.2892 6.2892z"/>
   <path d="m311.43 483.79c0 33.137-26.863 60-60 60s-60-26.863-60-60 26.863-60 60-60 60 26.863 60 60z" transform="matrix(.10482 0 0 .10482 25.906 859.39)" filter="url(#littleBlur)" stroke="#000" stroke-width="8.7" fill="none"/>
  </g>
 </g>
 <g id="Overdeliver" transform="translate(-24.998 -827.36)">
  <path d="m311.43 483.79c0 33.137-26.863 60-60 60s-60-26.863-60-60 26.863-60 60-60 60 26.863 60 60z" transform="matrix(.18815 0 0 .18815 4.954 779.07)" filter="url(#bigBlur)" fill="url(#radialGradient9179)"/>
  <path fill="#fff" d="m58.55 850.1"/>
  <path d="m311.43 483.79c0 33.137-26.863 60-60 60s-60-26.863-60-60 26.863-60 60-60 60 26.863 60 60z" transform="matrix(.10482 0 0 .10482 25.906 819.39)" filter="url(#littleBlur)" stroke="#000" stroke-width="8.7" fill="none"/>
  <g transform="translate(0,-40)">
   <path fill="url(#radialGradient9181)" d="m58.55 910.1c0 3.4734-2.8158 6.2892-6.2892 6.2892s-6.2892-2.8158-6.2892-6.2892 2.8158-6.2892 6.2892-6.2892 6.2892 2.8158 6.2892 6.2892z"/>
   <path d="m311.43 483.79c0 33.137-26.863 60-60 60s-60-26.863-60-60 26.863-60 60-60 60 26.863 60 60z" transform="matrix(.10482 0 0 .10482 25.906 859.39)" filter="url(#littleBlur)" stroke="#000" stroke-width="8.7" fill="none"/>
  </g>
 </g>
 <g id="Gregarious" transform="translate(15.002 -787.36)">
  <path d="m311.43 483.79c0 33.137-26.863 60-60 60s-60-26.863-60-60 26.863-60 60-60 60 26.863 60 60z" transform="matrix(.18815 0 0 .18815 4.954 779.07)" filter="url(#bigBlur)" fill="url(#radialGradient9179)"/>
  <path fill="#fff" d="m58.55 850.1"/>
  <path d="m311.43 483.79c0 33.137-26.863 60-60 60s-60-26.863-60-60 26.863-60 60-60 60 26.863 60 60z" transform="matrix(.10482 0 0 .10482 25.906 819.39)" filter="url(#littleBlur)" stroke="#000" stroke-width="8.7" fill="none"/>
  <g transform="translate(0,-40)">
   <path fill="url(#radialGradient9181)" d="m58.55 910.1c0 3.4734-2.8158 6.2892-6.2892 6.2892s-6.2892-2.8158-6.2892-6.2892 2.8158-6.2892 6.2892-6.2892 6.2892 2.8158 6.2892 6.2892z"/>
   <path d="m311.43 483.79c0 33.137-26.863 60-60 60s-60-26.863-60-60 26.863-60 60-60 60 26.863 60 60z" transform="matrix(.10482 0 0 .10482 25.906 859.39)" filter="url(#littleBlur)" stroke="#000" stroke-width="8.7" fill="none"/>
  </g>
 </g>
 <g id="Grounded" transform="translate(15.002 -827.36)">
  <path d="m311.43 483.79c0 33.137-26.863 60-60 60s-60-26.863-60-60 26.863-60 60-60 60 26.863 60 60z" transform="matrix(.18815 0 0 .18815 4.954 779.07)" filter="url(#bigBlur)" fill="url(#radialGradient9179)"/>
  <path fill="#fff" d="m58.55 850.1"/>
  <path d="m311.43 483.79c0 33.137-26.863 60-60 60s-60-26.863-60-60 26.863-60 60-60 60 26.863 60 60z" transform="matrix(.10482 0 0 .10482 25.906 819.39)" filter="url(#littleBlur)" stroke="#000" stroke-width="8.7" fill="none"/>
  <g transform="translate(0,-40)">
   <path fill="url(#radialGradient9181)" d="m58.55 910.1c0 3.4734-2.8158 6.2892-6.2892 6.2892s-6.2892-2.8158-6.2892-6.2892 2.8158-6.2892 6.2892-6.2892 6.2892 2.8158 6.2892 6.2892z"/>
   <path d="m311.43 483.79c0 33.137-26.863 60-60 60s-60-26.863-60-60 26.863-60 60-60 60 26.863 60 60z" transform="matrix(.10482 0 0 .10482 25.906 859.39)" filter="url(#littleBlur)" stroke="#000" stroke-width="8.7" fill="none"/>
  </g>
 </g>
 <g id="Initiate" transform="translate(55.002 -807.36)">
  <path d="m311.43 483.79c0 33.137-26.863 60-60 60s-60-26.863-60-60 26.863-60 60-60 60 26.863 60 60z" transform="matrix(.18815 0 0 .18815 4.954 779.07)" filter="url(#bigBlur)" fill="url(#radialGradient9179)"/>
  <path fill="#fff" d="m58.55 850.1"/>
  <path d="m311.43 483.79c0 33.137-26.863 60-60 60s-60-26.863-60-60 26.863-60 60-60 60 26.863 60 60z" transform="matrix(.10482 0 0 .10482 25.906 819.39)" filter="url(#littleBlur)" stroke="#000" stroke-width="8.7" fill="none"/>
  <g transform="translate(0,-40)">
   <path fill="url(#radialGradient9181)" d="m58.55 910.1c0 3.4734-2.8158 6.2892-6.2892 6.2892s-6.2892-2.8158-6.2892-6.2892 2.8158-6.2892 6.2892-6.2892 6.2892 2.8158 6.2892 6.2892z"/>
   <path d="m311.43 483.79c0 33.137-26.863 60-60 60s-60-26.863-60-60 26.863-60 60-60 60 26.863 60 60z" transform="matrix(.10482 0 0 .10482 25.906 859.39)" filter="url(#littleBlur)" stroke="#000" stroke-width="8.7" fill="none"/>
  </g>
 </g>
 <g id="Overdeliver2" transform="translate(95.002 -787.36)">
  <path d="m311.43 483.79c0 33.137-26.863 60-60 60s-60-26.863-60-60 26.863-60 60-60 60 26.863 60 60z" transform="matrix(.18815 0 0 .18815 4.954 779.07)" filter="url(#bigBlur)" fill="url(#radialGradient9179)"/>
  <path fill="#fff" d="m58.55 850.1"/>
  <path d="m311.43 483.79c0 33.137-26.863 60-60 60s-60-26.863-60-60 26.863-60 60-60 60 26.863 60 60z" transform="matrix(.10482 0 0 .10482 25.906 819.39)" filter="url(#littleBlur)" stroke="#000" stroke-width="8.7" fill="none"/>
  <g transform="translate(0,-40)">
   <path fill="url(#radialGradient9181)" d="m58.55 910.1c0 3.4734-2.8158 6.2892-6.2892 6.2892s-6.2892-2.8158-6.2892-6.2892 2.8158-6.2892 6.2892-6.2892 6.2892 2.8158 6.2892 6.2892z"/>
   <path d="m311.43 483.79c0 33.137-26.863 60-60 60s-60-26.863-60-60 26.863-60 60-60 60 26.863 60 60z" transform="matrix(.10482 0 0 .10482 25.906 859.39)" filter="url(#littleBlur)" stroke="#000" stroke-width="8.7" fill="none"/>
  </g>
 </g>
 <g id="Gregarious2" transform="translate(95.002 -827.36)">
  <path d="m311.43 483.79c0 33.137-26.863 60-60 60s-60-26.863-60-60 26.863-60 60-60 60 26.863 60 60z" transform="matrix(.18815 0 0 .18815 4.954 779.07)" filter="url(#bigBlur)" fill="url(#radialGradient9179)"/>
  <path fill="#fff" d="m58.55 850.1"/>
  <path d="m311.43 483.79c0 33.137-26.863 60-60 60s-60-26.863-60-60 26.863-60 60-60 60 26.863 60 60z" transform="matrix(.10482 0 0 .10482 25.906 819.39)" filter="url(#littleBlur)" stroke="#000" stroke-width="8.7" fill="none"/>
  <g transform="translate(0,-40)">
   <path fill="url(#radialGradient9181)" d="m58.55 910.1c0 3.4734-2.8158 6.2892-6.2892 6.2892s-6.2892-2.8158-6.2892-6.2892 2.8158-6.2892 6.2892-6.2892 6.2892 2.8158 6.2892 6.2892z"/>
   <path d="m311.43 483.79c0 33.137-26.863 60-60 60s-60-26.863-60-60 26.863-60 60-60 60 26.863 60 60z" transform="matrix(.10482 0 0 .10482 25.906 859.39)" filter="url(#littleBlur)" stroke="#000" stroke-width="8.7" fill="none"/>
  </g>
 </g>
 <g id="WellInformed" transform="translate(135 -787.36)">
  <path d="m311.43 483.79c0 33.137-26.863 60-60 60s-60-26.863-60-60 26.863-60 60-60 60 26.863 60 60z" transform="matrix(.18815 0 0 .18815 4.954 779.07)" filter="url(#bigBlur)" fill="url(#radialGradient9179)"/>
  <path fill="#fff" d="m58.55 850.1"/>
  <path d="m311.43 483.79c0 33.137-26.863 60-60 60s-60-26.863-60-60 26.863-60 60-60 60 26.863 60 60z" transform="matrix(.10482 0 0 .10482 25.906 819.39)" filter="url(#littleBlur)" stroke="#000" stroke-width="8.7" fill="none"/>
  <g transform="translate(0,-40)">
   <path fill="url(#radialGradient9181)" d="m58.55 910.1c0 3.4734-2.8158 6.2892-6.2892 6.2892s-6.2892-2.8158-6.2892-6.2892 2.8158-6.2892 6.2892-6.2892 6.2892 2.8158 6.2892 6.2892z"/>
   <path d="m311.43 483.79c0 33.137-26.863 60-60 60s-60-26.863-60-60 26.863-60 60-60 60 26.863 60 60z" transform="matrix(.10482 0 0 .10482 25.906 859.39)" filter="url(#littleBlur)" stroke="#000" stroke-width="8.7" fill="none"/>
  </g>
 </g>
 <g id="SilverTongue" transform="translate(135 -827.36)">
  <path d="m311.43 483.79c0 33.137-26.863 60-60 60s-60-26.863-60-60 26.863-60 60-60 60 26.863 60 60z" transform="matrix(.18815 0 0 .18815 4.954 779.07)" filter="url(#bigBlur)" fill="url(#radialGradient9179)"/>
  <path fill="#fff" d="m58.55 850.1"/>
  <path d="m311.43 483.79c0 33.137-26.863 60-60 60s-60-26.863-60-60 26.863-60 60-60 60 26.863 60 60z" transform="matrix(.10482 0 0 .10482 25.906 819.39)" filter="url(#littleBlur)" stroke="#000" stroke-width="8.7" fill="none"/>
  <g transform="translate(0,-40)">
   <path fill="url(#radialGradient9181)" d="m58.55 910.1c0 3.4734-2.8158 6.2892-6.2892 6.2892s-6.2892-2.8158-6.2892-6.2892 2.8158-6.2892 6.2892-6.2892 6.2892 2.8158 6.2892 6.2892z"/>
   <path d="m311.43 483.79c0 33.137-26.863 60-60 60s-60-26.863-60-60 26.863-60 60-60 60 26.863 60 60z" transform="matrix(.10482 0 0 .10482 25.906 859.39)" filter="url(#littleBlur)" stroke="#000" stroke-width="8.7" fill="none"/>
  </g>
 </g>
 <g id="Adept" transform="translate(175 -807.36)">
  <path d="m311.43 483.79c0 33.137-26.863 60-60 60s-60-26.863-60-60 26.863-60 60-60 60 26.863 60 60z" transform="matrix(.18815 0 0 .18815 4.954 779.07)" filter="url(#bigBlur)" fill="url(#radialGradient9179)"/>
  <path fill="#fff" d="m58.55 850.1"/>
  <path d="m311.43 483.79c0 33.137-26.863 60-60 60s-60-26.863-60-60 26.863-60 60-60 60 26.863 60 60z" transform="matrix(.10482 0 0 .10482 25.906 819.39)" filter="url(#littleBlur)" stroke="#000" stroke-width="8.7" fill="none"/>
  <g transform="translate(0,-40)">
   <path fill="url(#radialGradient9181)" d="m58.55 910.1c0 3.4734-2.8158 6.2892-6.2892 6.2892s-6.2892-2.8158-6.2892-6.2892 2.8158-6.2892 6.2892-6.2892 6.2892 2.8158 6.2892 6.2892z"/>
   <path d="m311.43 483.79c0 33.137-26.863 60-60 60s-60-26.863-60-60 26.863-60 60-60 60 26.863 60 60z" transform="matrix(.10482 0 0 .10482 25.906 859.39)" filter="url(#littleBlur)" stroke="#000" stroke-width="8.7" fill="none"/>
  </g>
 </g>
 <g id="WinningSmile2" transform="translate(215 -787.36)">
  <path d="m311.43 483.79c0 33.137-26.863 60-60 60s-60-26.863-60-60 26.863-60 60-60 60 26.863 60 60z" transform="matrix(.18815 0 0 .18815 4.954 779.07)" filter="url(#bigBlur)" fill="url(#radialGradient9179)"/>
  <path fill="#fff" d="m58.55 850.1"/>
  <path d="m311.43 483.79c0 33.137-26.863 60-60 60s-60-26.863-60-60 26.863-60 60-60 60 26.863 60 60z" transform="matrix(.10482 0 0 .10482 25.906 819.39)" filter="url(#littleBlur)" stroke="#000" stroke-width="8.7" fill="none"/>
  <g transform="translate(0,-40)">
   <path fill="url(#radialGradient9181)" d="m58.55 910.1c0 3.4734-2.8158 6.2892-6.2892 6.2892s-6.2892-2.8158-6.2892-6.2892 2.8158-6.2892 6.2892-6.2892 6.2892 2.8158 6.2892 6.2892z"/>
   <path d="m311.43 483.79c0 33.137-26.863 60-60 60s-60-26.863-60-60 26.863-60 60-60 60 26.863 60 60z" transform="matrix(.10482 0 0 .10482 25.906 859.39)" filter="url(#littleBlur)" stroke="#000" stroke-width="8.7" fill="none"/>
  </g>
 </g>
 <g id="Grounded2" transform="translate(215 -827.36)">
  <path d="m311.43 483.79c0 33.137-26.863 60-60 60s-60-26.863-60-60 26.863-60 60-60 60 26.863 60 60z" transform="matrix(.18815 0 0 .18815 4.954 779.07)" filter="url(#bigBlur)" fill="url(#radialGradient9179)"/>
  <path fill="#fff" d="m58.55 850.1"/>
  <path d="m311.43 483.79c0 33.137-26.863 60-60 60s-60-26.863-60-60 26.863-60 60-60 60 26.863 60 60z" transform="matrix(.10482 0 0 .10482 25.906 819.39)" filter="url(#littleBlur)" stroke="#000" stroke-width="8.7" fill="none"/>
  <g transform="translate(0,-40)">
   <path fill="url(#radialGradient9181)" d="m58.55 910.1c0 3.4734-2.8158 6.2892-6.2892 6.2892s-6.2892-2.8158-6.2892-6.2892 2.8158-6.2892 6.2892-6.2892 6.2892 2.8158 6.2892 6.2892z"/>
   <path d="m311.43 483.79c0 33.137-26.863 60-60 60s-60-26.863-60-60 26.863-60 60-60 60 26.863 60 60z" transform="matrix(.10482 0 0 .10482 25.906 859.39)" filter="url(#littleBlur)" stroke="#000" stroke-width="8.7" fill="none"/>
  </g>
 </g>
 <g id="WellInformed2" transform="translate(255 -787.36)">
  <path d="m311.43 483.79c0 33.137-26.863 60-60 60s-60-26.863-60-60 26.863-60 60-60 60 26.863 60 60z" transform="matrix(.18815 0 0 .18815 4.954 779.07)" filter="url(#bigBlur)" fill="url(#radialGradient9179)"/>
  <path fill="#fff" d="m58.55 850.1"/>
  <path d="m311.43 483.79c0 33.137-26.863 60-60 60s-60-26.863-60-60 26.863-60 60-60 60 26.863 60 60z" transform="matrix(.10482 0 0 .10482 25.906 819.39)" filter="url(#littleBlur)" stroke="#000" stroke-width="8.7" fill="none"/>
  <g transform="translate(0,-40)">
   <path fill="url(#radialGradient9181)" d="m58.55 910.1c0 3.4734-2.8158 6.2892-6.2892 6.2892s-6.2892-2.8158-6.2892-6.2892 2.8158-6.2892 6.2892-6.2892 6.2892 2.8158 6.2892 6.2892z"/>
   <path d="m311.43 483.79c0 33.137-26.863 60-60 60s-60-26.863-60-60 26.863-60 60-60 60 26.863 60 60z" transform="matrix(.10482 0 0 .10482 25.906 859.39)" filter="url(#littleBlur)" stroke="#000" stroke-width="8.7" fill="none"/>
  </g>
 </g>
 <g id="SilverTongue2" transform="translate(255 -827.36)">
  <path d="m311.43 483.79c0 33.137-26.863 60-60 60s-60-26.863-60-60 26.863-60 60-60 60 26.863 60 60z" transform="matrix(.18815 0 0 .18815 4.954 779.07)" filter="url(#bigBlur)" fill="url(#radialGradient9179)"/>
  <path fill="#fff" d="m58.55 850.1"/>
  <path d="m311.43 483.79c0 33.137-26.863 60-60 60s-60-26.863-60-60 26.863-60 60-60 60 26.863 60 60z" transform="matrix(.10482 0 0 .10482 25.906 819.39)" filter="url(#littleBlur)" stroke="#000" stroke-width="8.7" fill="none"/>
  <g transform="translate(0,-40)">
   <path fill="url(#radialGradient9181)" d="m58.55 910.1c0 3.4734-2.8158 6.2892-6.2892 6.2892s-6.2892-2.8158-6.2892-6.2892 2.8158-6.2892 6.2892-6.2892 6.2892 2.8158 6.2892 6.2892z"/>
   <path d="m311.43 483.79c0 33.137-26.863 60-60 60s-60-26.863-60-60 26.863-60 60-60 60 26.863 60 60z" transform="matrix(.10482 0 0 .10482 25.906 859.39)" filter="url(#littleBlur)" stroke="#000" stroke-width="8.7" fill="none"/>
  </g>
 </g>
 <g id="Mage" transform="translate(295 -807.36)">
  <path d="m311.43 483.79c0 33.137-26.863 60-60 60s-60-26.863-60-60 26.863-60 60-60 60 26.863 60 60z" transform="matrix(.18815 0 0 .18815 4.954 779.07)" filter="url(#bigBlur)" fill="url(#radialGradient9179)"/>
  <path fill="#fff" d="m58.55 850.1"/>
  <path d="m311.43 483.79c0 33.137-26.863 60-60 60s-60-26.863-60-60 26.863-60 60-60 60 26.863 60 60z" transform="matrix(.10482 0 0 .10482 25.906 819.39)" filter="url(#littleBlur)" stroke="#000" stroke-width="8.7" fill="none"/>
  <g transform="translate(0,-40)">
   <path fill="url(#radialGradient9181)" d="m58.55 910.1c0 3.4734-2.8158 6.2892-6.2892 6.2892s-6.2892-2.8158-6.2892-6.2892 2.8158-6.2892 6.2892-6.2892 6.2892 2.8158 6.2892 6.2892z"/>
   <path d="m311.43 483.79c0 33.137-26.863 60-60 60s-60-26.863-60-60 26.863-60 60-60 60 26.863 60 60z" transform="matrix(.10482 0 0 .10482 25.906 859.39)" filter="url(#littleBlur)" stroke="#000" stroke-width="8.7" fill="none"/>
  </g>
 </g>
</svg>
