<!-- Created with Inkscape (http://www.inkscape.org/) -->
<svg id="map" xmlns="http://www.w3.org/2000/svg" height="1080" width="1542" version="1.1" xmlns:cc="http://creativecommons.org/ns#" xmlns:xlink="http://www.w3.org/1999/xlink" draggable="false">
  <defs>
    <radialGradient id="maskBlur">
      <stop offset="75%" stop-opacity="1" />
      <stop offset="100%" stop-opacity="0" />
    </radialGradient>

    <mask id="MapMask" maskUnits="userSpaceOnUse">
      <rect height="1080" width="1542" fill="#fff" />
      <circle id="VailiaMask" cx="646" cy="566" r="250" fill="url(#maskBlur)" />
      <circle id="MtJuliaMask" cx="540" cy="551" r="150" fill="url(#maskBlur)" />
      <circle id="AlkeniaMask" cx="468" cy="516" r="150" fill="url(#maskBlur)" />
      <circle id="NonkeniaMask" cx="445" cy="486" r="150" fill="url(#maskBlur)" />
      <circle id="IronSandsMask" cx="525" cy="675" r="125" fill="url(#maskBlur)" />
      <circle id="TomenoiMask" cx="832" cy="470" r="150" fill="url(#maskBlur)" />
      <circle id="ColinthMask" cx="1079" cy="413" r="150" fill="url(#maskBlur)" />
      <ellipse id="KantisMask" cx="1013" cy="435" rx="250" ry="82" fill="url(#maskBlur)" />
      <circle id="SpinisMask" cx="1173" cy="493" r="125" fill="url(#maskBlur)" />
      <circle id="LephaiMask" cx="1190" cy="372" r="150" fill="url(#maskBlur)" />
      <circle id="AmandaisMask" cx="1243" cy="487" r="150" fill="url(#maskBlur)" />
      <circle id="MentMask" cx="1177" cy="332" r="150" fill="url(#maskBlur)" />
      <circle id="CraterMask" cx="1211" cy="302" r="150" fill="url(#maskBlur)" />
    </mask>
  </defs>
  <g id="MapLayer" >
    <image id="image3956" xlink:href="game/content/Map.png" height="1080" width="1542" />
    <rect id="rect3963" mask="url(#MapMask)" height="1080" width="1542" fill="#000" />
  </g>
  <g id="PathLayer" stroke="#f00" stroke-dasharray="9, 6" stroke-width="1.5" fill="none">
    <path id="Vailia_MtJulia"    travel="Sail" d="M 646 566 C 652 603, 557 525,  540 551"/>
    <path id="Vailia_Alkenia"    travel="Sail" d="M 646 566 C 662 609, 467 485,  468 516"/>
    <path id="Vailia_Nonkenia"   travel="Sail" d="M 646 566 C 658 603, 547 533,  445 486"/>
    <path id="Vailia_IronSands"  travel="Sail" d="M 646 566 C 667 569, 511 702,  525 675"/>
    <path id="Vailia_Tomenoi"    travel="Sail" d="M 646 566 C 633 584, 845 480,  832 470"/>
    <path id="MtJulia_Alkenia"   travel="Sail" d="M 540 551 C 572 543, 463 502,  468 516"/>
    <path id="MtJulia_Nonkenia"  travel="Sail" d="M 540 551 C 575 544, 457 494,  445 486"/>
    <path id="MtJulia_IronSands" travel="Sail" d="M 540 551 C 596 512, 551 694,  525 675"/>
    <path id="MtJulia_Tomenoi"   travel="Sail" d="M 540 551 C 36,-19 32, 7 71, -7 86, -31 240, -61 221, -75"/>
    <path id="Alkenia_Nonkenia"  travel="Sail" d="M 468 516 C 487 518, 468 508, 445 486"/>
    <path id="Tomenoi_Colinth"   travel="Sail" d="M 832 470 C ___ ___, ___ ___, 1079 413"/>
    <path id="Tomenoi_Kantis"    travel="Sail" d="M 832 470 C ___ ___, ___ ___, 1013 435"/>
    <path id="Colinth_Lephai"    travel="Sail" d="M " />
    <path id="Colinth_Spinis"    travel="Sail" d="M " />
    <path id="Colinth_Amandais"  travel="Sail" d="M 1077.5326,416.16885 c 8,11.06156 17.6807,6.10487 34.2383,11.5464 13.5513,4.45354 104.3454,43.14297 131.3559,59.49295" />
    <path id="Kantis_Amandais"   travel="Sail" d="M 1083.4939,442.33251 c 7,-15.43329 7.7452,-20.38998 24.3028,-14.94845 13.5513,4.45354 108.3196,43.47416 135.3301,59.82414" />
    <path id="Kantis_Spinis"     travel="Sail" d="M 1082.8316,441.67014 c 9,-10 5,-20 29,-14 14,4 55,47 61,64" />
    <path id="Kantis_Lephai"     travel="Sail" d="M 1083 442 c 10,-27 46,-25 81,-45 16,-9 17,-15 26,-24" />
    <path id="Lephai_Ment"       travel="Sail" d="M 1190 371 c -7,-21 -9,-27 -13,-39" />
    <path id="Ment_Crater"       travel="Sail" d="M 1177 332 c 9,-7 22,-18 33,-29" />
  </g>
  <svg id="Ship" x="0" y="0" overflow="visible">
    <circle cx="0" cy="0" r="5" style="fill:#DD0000;stroke:none"/>
    <circle cx="0" cy="0" r="8" style="fill:none;stroke:#DD0000;stroke-width:1.2;"/>
  </svg>
  <g id="LabelLayer"  font-family="Sans" font-size="18px">
    <g id="Vailia">
      <rect rx="6" ry="6" />
      <circle cx="646" cy="566" r="5" />
      <text x="661" y="572">Vailia <tspan>- <tspan></tspan></tspan></text>
    </g>
    <g id="MtJulia">
      <rect rx="6" ry="6" />
      <circle cx="540" cy="551" r="5" />
      <text x="540" y="577" text-anchor="middle">Mt. Julia <tspan>- <tspan></tspan></tspan></text>
    </g>
    <g id="Alkenia">
      <rect rx="6" ry="6" />
      <circle cx="468" cy="516" r="5" />
      <text x="455" y="521" text-anchor="end">Alkenia <tspan>- <tspan></tspan></tspan></text>
    </g>
    <g id="Nonkenia">
      <rect rx="6" ry="6" />
      <circle cx="445" cy="486" r="5" />
      <text x="445" y="473" text-anchor="middle">Nonkenia <tspan>- <tspan></tspan></tspan></text>
    </g>
    <g id="IronSands">
      <rect rx="6" ry="6" />
      <circle cx="525" cy="675" r="5" />
      <text x="525" y="699" text-anchor="middle">Iron Sands <tspan>- <tspan></tspan></tspan></text>
    </g>
    <g id="Tomenoi">
      <rect rx="6" ry="6" />
      <circle cx="832" cy="470" r="5" />
      <text x="832" y="453" text-anchor="middle">Tomenoi <tspan>- <tspan></tspan></tspan></text>
    </g>
    <g id="Colinth">
      <rect rx="6" ry="6" />
      <circle cx="1079" cy="413" r="5" />
      <text x="1079" y="399" text-anchor="middle">Colinth <tspan>- <tspan></tspan></tspan></text>
    </g>
    <g id="Kantis">
      <rect rx="6" ry="6" />
      <circle cx="1083" cy="442" r="5" />
      <text x="1083" y="470" text-anchor="middle">Kantis <tspan>- <tspan></tspan></tspan></text>
    </g>
    <g id="Spinis">
      <rect rx="6" ry="6" />
      <circle cx="1173" cy="493" r="5" />
      <text x="1173" y="519" text-anchor="middle">Spinis <tspan>- <tspan></tspan></tspan></text>
    </g>
    <g id="Lephai">
      <rect rx="6" ry="6" />
      <circle cx="1190" cy="372" r="5" />
      <text x="1202" y="378">Lephai <tspan>- <tspan></tspan></tspan></text>
    </g>
    <g id="Amandais">
      <rect rx="6" ry="6" />
      <circle cx="1243" cy="487" r="5" />
      <text x="1258" y="492">Amandais <tspan>- <tspan></tspan></tspan></text>
    </g>
    <g id="Ment">
      <rect rx="6" ry="6" />
      <circle cx="1177" cy="332" r="5" />
      <text x="1164" y="336" text-anchor="end">Ment <tspan>- <tspan></tspan></tspan></text>
    </g>
    <g id="Crater">
      <rect rx="6" ry="6" />
      <circle cx="1211" cy="302" r="5" />
      <text x="1139" y="307">Crater <tspan>- <tspan></tspan></tspan></text>
    </g>
  </g>
</svg>
