<!-- Created with Inkscape (http://www.inkscape.org/) -->
<svg id="map" xmlns="http://www.w3.org/2000/svg" height="1080" width="1542" version="1.1" xmlns:cc="http://creativecommons.org/ns#" xmlns:xlink="http://www.w3.org/1999/xlink" draggable="false">
  <defs>
    <radialGradient id="maskBlur">
      <stop offset="75%" stop-opacity="1" />
      <stop offset="100%" stop-opacity="0" />
    </radialGradient>

    <mask id="MapMask" maskUnits="userSpaceOnUse">
      <rect height="1080" width="1542" fill="#fff" />
      <circle id="VailiaMask" cx="646" cy="566" r="250" fill="url(#maskBlur)" />
      <circle id="MtJuliaMask" cx="540" cy="551" r="150" fill="url(#maskBlur)" />
      <circle id="AlkeniaMask" cx="468" cy="516" r="150" fill="url(#maskBlur)" />
      <circle id="NonkeniaMask" cx="445" cy="486" r="150" fill="url(#maskBlur)" />
      <circle id="IronSandsMask" cx="525" cy="675" r="125" fill="url(#maskBlur)" />
      <circle id="TomenoiMask" cx="832" cy="470" r="150" fill="url(#maskBlur)" />
      <circle id="ColinthMask" cx="1079" cy="413" r="150" fill="url(#maskBlur)" />
      <ellipse id="KantisMask" cx="1013" cy="435" rx="250" ry="82" fill="url(#maskBlur)" />
      <circle id="SpinisMask" cx="1173" cy="493" r="125" fill="url(#maskBlur)" />
      <circle id="LephaiMask" cx="1190" cy="372" r="150" fill="url(#maskBlur)" />
      <circle id="AmandaisMask" cx="1243" cy="487" r="150" fill="url(#maskBlur)" />
      <circle id="MentMask" cx="1177" cy="332" r="150" fill="url(#maskBlur)" />
      <circle id="CraterMask" cx="1211" cy="302" r="150" fill="url(#maskBlur)" />
    </mask>
  </defs>
  <g id="MapLayer" >
    <image id="image3956" xlink:href="game/content/Map.png" height="1080" width="1542" />
    <rect id="rect3963" mask="url(#MapMask)" height="1080" width="1542" fill="#000" />
  </g>
  <g id="PathLayer" stroke="#f00" stroke-dasharray="9, 6" stroke-width="1.5" fill="none">
    <path id="Vailia_MtJulia"    travel="Sail" d="M 646 566 C 652 603, 557 525, 540 551"/>
    <path id="Vailia_Alkenia"    travel="Sail" d="M 646 566 C 662 609, 467 485, 468 516"/>
    <path id="Vailia_Nonkenia"   travel="Sail" d="M 646 566 C 658 603, 547 533, 445 486"/>
    <path id="Vailia_IronSands"  travel="Sail" d="M 646 566 C 667 569, 511 702, 525 675"/>
    <path id="Vailia_Tomenoi"    travel="Sail" d="M 646 566 C 633 584, 845 480, 832 470"/>
    <path id="MtJulia_Alkenia"   travel="Sail" d="M 540 551 C 572 543, 463 502, 468 516"/>
    <path id="MtJulia_Nonkenia"  travel="Sail" d="M 540 551 C 575 544, 457 494, 445 486"/>
    <path id="MtJulia_IronSands" travel="Sail" d="M 540 551 C 596 512, 551 694, 525 675"/>
    <path id="MtJulia_Tomenoi"   travel="Sail" d="M 540,551 c 36,-19 32, 7 71, -7 86, -31 240, -61 221, -75"/>
    <path id="Alkenia_Nonkenia"  travel="Sail" d="M 468 516 C 487 518, 468 508, 445 486"/>
  </g>
  <svg id="Ship" x="0" y="0" overflow="visible">
    <circle cx="0" cy="0" r="5" style="fill:#DD0000;stroke:none"/>
    <circle cx="0" cy="0" r="8" style="fill:none;stroke:#DD0000;stroke-width:1.2;"/>
  </svg>
  <g id="LabelLayer"  font-family="Sans" font-size="18px">
    <g id="Vailia">
      <rect fill="transparent" />
      <circle cx="646" cy="566" r="5" />
      <text x="655" y="572">Vailia <tspan>(<tspan></tspan>)</tspan></text>
    </g>
    <g id="MtJulia">
      <rect fill="transparent" />
      <circle cx="540" cy="551" r="5" />
      <text x="540" y="573" text-anchor="middle">Mt. Julia <tspan>(<tspan></tspan>)</tspan></text>
    </g>
    <g id="Alkenia">
      <rect fill="transparent" />
      <circle cx="468" cy="516" r="5" />
      <text x="455" y="521" text-anchor="end">Alkenia <tspan>(<tspan></tspan>)</tspan></text>
    </g>
    <g id="Nonkenia">
      <rect fill="transparent" />
      <circle cx="445" cy="486" r="5" />
      <text x="445" y="477" text-anchor="middle">Nonkenia <tspan>(<tspan></tspan>)</tspan></text>
    </g>
    <g id="IronSands">
      <rect fill="transparent" />
      <circle cx="525" cy="675" r="5" />
      <text x="525" y="695" text-anchor="middle">Iron Sands <tspan>(<tspan></tspan>)</tspan></text>
    </g>
    <g id="Tomenoi">
      <rect fill="transparent" />
      <circle cx="832" cy="470" r="5" />
      <text x="832" y="460" text-anchor="middle">Tomenoi <tspan>(<tspan></tspan>)</tspan></text>
    </g>
    <g id="Colinth">
      <rect fill="transparent" />
      <circle cx="1079" cy="413" r="5" />
      <text x="1079" y="403" text-anchor="middle">Colinth <tspan>(<tspan></tspan>)</tspan></text>
    </g>
    <g id="Kantis">
      <rect fill="transparent" />
      <circle cx="1083" cy="442" r="5" />
      <text x="1083" y="464" text-anchor="middle">Kantis <tspan>(<tspan></tspan>)</tspan></text>
    </g>
    <g id="Spinis">
      <rect fill="transparent" />
      <circle cx="1173" cy="493" r="5" />
      <text x="1173" y="515" text-anchor="middle">Spinis <tspan>(<tspan></tspan>)</tspan></text>
    </g>
    <g id="Lephai">
      <rect fill="transparent" />
      <circle cx="1190" cy="372" r="5" />
      <text x="1198" y="378">Lephai <tspan>(<tspan></tspan>)</tspan></text>
    </g>
    <g id="Amandais">
      <rect fill="transparent" />
      <circle cx="1243" cy="487" r="5" />
      <text x="1243" y="507" text-anchor="middle">Amandais <tspan>(<tspan></tspan>)</tspan></text>
    </g>
    <g id="Ment">
      <rect fill="transparent" />
      <circle cx="1177" cy="332" r="5" />
      <text x="1164" y="336" text-anchor="end">Ment <tspan>(<tspan></tspan>)</tspan></text>
    </g>
    <g id="Crater">
      <rect fill="transparent" />
      <circle cx="1211" cy="302" r="5" />
      <text x="1143" y="307">Crater <tspan>(<tspan></tspan>)</tspan></text>
    </g>
  </g>
</svg>
