<!-- Created with Inkscape (http://www.inkscape.org/) -->
<svg id="map" xmlns="http://www.w3.org/2000/svg" height="1080" width="1542" version="1.1" xmlns:cc="http://creativecommons.org/ns#" xmlns:xlink="http://www.w3.org/1999/xlink" draggable="false">
  <defs>
    <radialGradient id="maskBlur">
      <stop offset="75%" stop-opacity="1" />
      <stop offset="100%" stop-opacity="0" />
    </radialGradient>

    <mask id="MapMask" maskUnits="userSpaceOnUse">
      <rect height="1080" width="1542" fill="#fff" />
      <circle id="VailiaMask" cx="646" cy="566" r="250" fill="url(#maskBlur)" />
      <circle id="MtJuliaMask" cx="540" cy="551" r="150" fill="url(#maskBlur)" />
      <circle id="AlkeniaMask" cx="472" cy="526" r="150" fill="url(#maskBlur)" />
      <circle id="NonkeniaMask" cx="445" cy="486" r="150" fill="url(#maskBlur)" />
      <circle id="IronSandsMask" cx="525" cy="675" r="125" fill="url(#maskBlur)" />
      <circle id="TomenoiMask" cx="832" cy="470" r="150" fill="url(#maskBlur)" />
      <circle id="ColinthMask" cx="1079" cy="413" r="150" fill="url(#maskBlur)" />
      <ellipse id="KantisMask" cx="1013" cy="435" rx="250" ry="82" fill="url(#maskBlur)" />
      <circle id="SpinisMask" cx="1173" cy="493" r="125" fill="url(#maskBlur)" />
      <circle id="LephaiMask" cx="1190" cy="372" r="150" fill="url(#maskBlur)" />
      <circle id="AmandaisMask" cx="1243" cy="487" r="150" fill="url(#maskBlur)" />
      <circle id="MentMask" cx="1177" cy="332" r="150" fill="url(#maskBlur)" />
      <circle id="CraterMask" cx="1211" cy="302" r="150" fill="url(#maskBlur)" />
    </mask>
  </defs>
  <g id="MapLayer" >
    <image id="image3956" xlink:href="content/Map.png" height="1080" width="1542" />
    <rect id="rect3963" mask="url(#MapMask)" height="1080" width="1542" fill="#000" />
  </g>
  <g id="PathLayer" stroke="#f00" stroke-miterlimit="0" stroke-dasharray="9, 3" stroke-width="3.3" fill="none">
    <path id="Vailia_MtJulia"    d="M 646 566 C 652 603, 557 525, 540 551" travel="Sail"/>
    <path id="Vailia_Alkenia"    d="M 646 566 C 662 609, 467 485, 472 526" travel="Sail"/>
    <path id="Vailia_Nonkenia"   d="M 646 566 C 658 603, 547 533, 445 486" travel="Sail"/>
    <path id="Vailia_IronSands"  d="M 646 566 C 667 569, 511 702, 525 675" travel="Sail"/>
    <path id="Vailia_Tomenoi"    d="M 646 566 C 633 584, 845 480, 832 470" travel="Sail"/>
    <path id="MtJulia_Alkenia"   d="M 540 551 C 572 543, 463 502, 472 526" travel="Sail"/>
    <path id="MtJulia_Nonkenia"  d="M 540 551 C 575 544, 457 494, 445 486" travel="Sail"/>
    <path id="MtJulia_IronSands" d="M 540 551 C 596 512, 551 694, 525 675" travel="Sail"/>
    <path id="Alkenia_Nonkenia"  d="M 472 526 C 487 518, 468 508, 445 486" travel="Sail"/>
  </g>
  <svg id="Ship" x="0" y="0" overflow="visible">
    <circle cx="0" cy="0" r="5" style="fill:#DD0000;stroke:none"/>
    <circle cx="0" cy="0" r="8" style="fill:none;stroke:#DD0000;stroke-width:1.2;"/>
  </svg>
  <g id="LabelLayer"  font-family="Sans" font-size="18px">
    <g id="Vailia"><circle cx="646" cy="566" r="5" /><text y="572" x="655">Vailia</text></g>
    <g id="MtJulia"><circle cx="540" cy="551" r="5" /><text y="573" x="505">Mt. Julia</text></g>
    <g id="Alkenia"><circle cx="472" cy="526" r="5" /><text y="531" x="400">Alkenia</text></g>
    <g id="Nonkenia"><circle cx="445" cy="486" r="5" /><text y="477" x="405">Nonkenia</text></g>
    <g id="IronSands"><circle cx="525" cy="675" r="5" /><text y="695" x="477">Iron Sands</text></g>
    <g id="Tomenoi"><circle cx="832" cy="470" r="5" /><text y="460" x="792">Tomenoi</text></g>
    <g id="Colinth"><circle cx="1079" cy="413" r="5" /><text y="403" x="1047">Colinth</text></g>
    <g id="Kantis"><circle cx="1083" cy="442" r="5" /><text y="464" x="1053">Kantis</text></g>
    <g id="Spinis"><circle cx="1173" cy="493" r="5" /><text y="515" x="1146">Spinis</text></g>
    <g id="Lephai"><circle cx="1190" cy="372" r="5" /><text y="378" x="1198">Lephai</text></g>
    <g id="Amandais"><circle cx="1243" cy="487" r="5" /><text y="507" x="1203">Amandais</text></g>
    <g id="Ment"><circle cx="1177" cy="332" r="5" /><text y="336" x="1120">Ment</text></g>
    <g id="Crater"><circle cx="1211" cy="302" r="5" /><text y="307" x="1143">Crater</text></g>
  </g>
</svg>
