<?xml version="1.0" encoding="UTF-8" standalone="no"?>
<?xml-stylesheet type="text/css" href="../../content.css"?>
<svg
  xmlns:rdf="http://www.w3.org/1999/02/22-rdf-syntax-ns#" xmlns="http://www.w3.org/2000/svg" version="1.1" xmlns:cc="http://creativecommons.org/ns#" xmlns:xlink="http://www.w3.org/1999/xlink" xmlns:dc="http://purl.org/dc/elements/1.1/"
  class="skills" viewBox="5 10 365 105"
>
 <metadata>
  <rdf:RDF>
   <cc:Work rdf:about="">
    <dc:format>image/svg+xml</dc:format>
    <dc:type rdf:resource="http://purl.org/dc/dcmitype/StillImage"/>
   </cc:Work>
  </rdf:RDF>
 </metadata>
 <defs>
  <filter id="bigBlur">
   <feGaussianBlur stdDeviation="3"/>
  </filter>
  <radialGradient id="bigBlurGradient">
   <stop stop-color="#aa3600" offset="0"/>
   <stop stop-color="#ffc57d" offset="1"/>
  </radialGradient>
  <radialGradient id="solidGradient">
   <stop stop-color="#ffc57d" offset="0"/>
   <stop stop-color="#aa3600" offset="1"/>
  </radialGradient>
 </defs>
 <path fill="none" d="m27.768 66.528 63.393 33.561m-34.449-32.361 36.246 30.279m-8.94-29.169 11.339 27.879m71.443-30.379-63.835 33.75m34.575-32.74-35.8 30.47m8.05-29.23-10.833 28.07m108.81-30.13 63.393 33.561m-34.453-32.361 36.246 30.279m-8.936-29.169 11.339 27.879m71.441-30.379-63.835 33.75m34.575-32.74-35.804 30.468m8.054-29.228-10.834 28.068m-161.19-37.758 63.393-33.561m-34.453 32.361 36.25-30.27m-8.94 29.16 11.339-27.879m71.441 30.379-63.835-33.75m34.575 32.74-35.8-30.47m8.05 29.23-10.83-28.06" stroke="#999"/>

 <g id="Bright" transform="translate(23, 61)">
  <circle r="12" fill="url(#bigBlurGradient)" filter="url(#bigBlur)"/>
  <circle r="7" fill="url(#solidGradient)"/>
  <circle r="7" fill="none" stroke="#ffc57d" stroke-width="1"/>
 </g>

 <g id="Generous" transform="translate(53, 61)">
  <circle r="12" fill="url(#bigBlurGradient)" filter="url(#bigBlur)"/>
  <circle r="7" fill="url(#solidGradient)"/>
  <circle r="7" fill="none" stroke="#ffc57d" stroke-width="1"/>
 </g>
 <g id="SixthSense" transform="translate(83, 61)">
  <circle r="12" fill="url(#bigBlurGradient)" filter="url(#bigBlur)"/>
  <circle r="7" fill="url(#solidGradient)"/>
  <circle r="7" fill="none" stroke="#ffc57d" stroke-width="1"/>
 </g>
 <g id="StreetRat" transform="translate(98, 101)">
  <circle r="12" fill="url(#bigBlurGradient)" filter="url(#bigBlur)"/>
  <circle r="7" fill="url(#solidGradient)"/>
  <circle r="7" fill="none" stroke="#ffc57d" stroke-width="1"/>
 </g>
 <g id="HowNotToLose" transform="translate(113, 61)">
  <circle r="12" fill="url(#bigBlurGradient)" filter="url(#bigBlur)"/>
  <circle r="7" fill="url(#solidGradient)"/>
  <circle r="7" fill="none" stroke="#ffc57d" stroke-width="1"/>
 </g>
 <g id="NeverTooLate" transform="translate(143, 61)">
  <circle r="12" fill="url(#bigBlurGradient)" filter="url(#bigBlur)"/>
  <circle r="7" fill="url(#solidGradient)"/>
  <circle r="7" fill="none" stroke="#ffc57d" stroke-width="1"/>
 </g>
 <g id="Devilish" transform="translate(173, 61)">
  <circle r="12" fill="url(#bigBlurGradient)" filter="url(#bigBlur)"/>
  <circle r="7" fill="url(#solidGradient)"/>
  <circle r="7" fill="none" stroke="#ffc57d" stroke-width="1"/>
 </g>
 <g id="Deckhand" transform="translate(188, 26)">
  <circle r="12" fill="url(#bigBlurGradient)" filter="url(#bigBlur)"/>
  <circle r="7" fill="url(#solidGradient)"/>
  <circle r="7" fill="none" stroke="#ffc57d" stroke-width="1"/>
 </g>
 <g id="Bright2" transform="translate(203, 61)">
  <circle r="12" fill="url(#bigBlurGradient)" filter="url(#bigBlur)"/>
  <circle r="7" fill="url(#solidGradient)"/>
  <circle r="7" fill="none" stroke="#ffc57d" stroke-width="1"/>
 </g>
 <g id="Generous2" transform="translate(233, 61)">
  <circle r="12" fill="url(#bigBlurGradient)" filter="url(#bigBlur)"/>
  <circle r="7" fill="url(#solidGradient)"/>
  <circle r="7" fill="none" stroke="#ffc57d" stroke-width="1"/>
 </g>
 <g id="SixthSense2" transform="translate(263, 61)">
  <circle r="12" fill="url(#bigBlurGradient)" filter="url(#bigBlur)"/>
  <circle r="7" fill="url(#solidGradient)"/>
  <circle r="7" fill="none" stroke="#ffc57d" stroke-width="1"/>
 </g>
 <g id="FreeWoman" transform="translate(278, 101)">
  <circle r="12" fill="url(#bigBlurGradient)" filter="url(#bigBlur)"/>
  <circle r="7" fill="url(#solidGradient)"/>
  <circle r="7" fill="none" stroke="#ffc57d" stroke-width="1"/>
 </g>
 <g id="HowNotToLose2" transform="translate(293, 61)">
  <circle r="12" fill="url(#bigBlurGradient)" filter="url(#bigBlur)"/>
  <circle r="7" fill="url(#solidGradient)"/>
  <circle r="7" fill="none" stroke="#ffc57d" stroke-width="1"/>
 </g>
 <g id="NeverTooLate2" transform="translate(323, 61)">
  <circle r="12" fill="url(#bigBlurGradient)" filter="url(#bigBlur)"/>
  <circle r="7" fill="url(#solidGradient)"/>
  <circle r="7" fill="none" stroke="#ffc57d" stroke-width="1"/>
 </g>
 <g id="Devilish2" transform="translate(353, 61)">
  <circle r="12" fill="url(#bigBlurGradient)" filter="url(#bigBlur)"/>
  <circle r="7" fill="url(#solidGradient)"/>
  <circle r="7" fill="none" stroke="#ffc57d" stroke-width="1"/>
 </g>
</svg>
