<?xml version="1.0" encoding="UTF-8" standalone="no"?>
<svg xmlns:rdf="http://www.w3.org/1999/02/22-rdf-syntax-ns#" xmlns="http://www.w3.org/2000/svg" height="125" width="375" version="1.1" xmlns:cc="http://creativecommons.org/ns#" xmlns:xlink="http://www.w3.org/1999/xlink" xmlns:dc="http://purl.org/dc/elements/1.1/">
 <metadata>
  <rdf:RDF>
   <cc:Work rdf:about="">
    <dc:format>image/svg+xml</dc:format>
    <dc:type rdf:resource="http://purl.org/dc/dcmitype/StillImage"/>
    <dc:title/>
   </cc:Work>
  </rdf:RDF>
 </metadata>
 <defs>
  <filter id="bigBlur" height="1.972" width="1.972" y="-.486" x="-.486" color-interpolation-filters="sRGB">
   <feGaussianBlur stdDeviation="24.304"/>
  </filter>
  <filter id="littleBlur" color-interpolation-filters="sRGB">
   <feGaussianBlur stdDeviation="3.544"/>
  </filter>
  <radialGradient id="radialGradient9119" gradientUnits="userSpaceOnUse" cy="483.79" cx="251.43" r="60">
   <stop stop-color="#alittleBlur" offset="0"/>
   <stop stop-color="#ffc57d" offset="1"/>
  </radialGradient>
  <radialGradient id="radialGradient9121" gradientUnits="userSpaceOnUse" cy="483.79" cx="251.43" gradientTransform="matrix(.10482 0 0 .10482 25.906 859.39)" r="60">
   <stop stop-color="#ffc57d" offset="0"/>
   <stop stop-color="#aa3600" offset="1"/>
  </radialGradient>
 </defs>
 <path fill="none" d="m37.177 39.198v47.143m53.572 6.427h-47.143m47.143-60h-47.143m53.571 6.43v47.143m53.571 6.427h-47.143m47.143-60h-47.143m53.573 6.43v47.143m53.57 6.427h-47.143m47.143-60h-47.143m53.573 6.43v47.143m53.57 6.427h-47.143m47.143-60h-47.143m53.573 6.43v47.143m53.57 6.427h-47.143m47.143-60h-47.143m53.573 6.43v47.143m-295.3-49.023 20.67 20.67m-20.67 30 20.67-20.67m99.335-30 20.67 20.67m-20.67 30 20.67-20.67m99.33-30 20.67 20.67m-20.67 30 20.67-20.67" stroke="#000"/>
 <g id="Reliable" transform="translate(-14.998 -777.36)">
  <path d="m311.43 483.79c0 33.137-26.863 60-60 60s-60-26.863-60-60 26.863-60 60-60 60 26.863 60 60z" transform="matrix(.18815 0 0 .18815 4.954 779.07)" filter="url(#bigBlur)" fill="url(#radialGradient9119)"/>
  <path d="m311.43 483.79c0 33.137-26.863 60-60 60s-60-26.863-60-60 26.863-60 60-60 60 26.863 60 60z" transform="matrix(.10482 0 0 .10482 25.906 819.39)" filter="url(#littleBlur)" stroke="#000" stroke-width="8.7" fill="none"/>
  <g transform="translate(0,-40)">
   <path fill="url(#radialGradient9121)" d="m58.55 910.1c0 3.4734-2.8158 6.2892-6.2892 6.2892s-6.2892-2.8158-6.2892-6.2892 2.8158-6.2892 6.2892-6.2892 6.2892 2.8158 6.2892 6.2892z"/>
   <path d="m311.43 483.79c0 33.137-26.863 60-60 60s-60-26.863-60-60 26.863-60 60-60 60 26.863 60 60z" transform="matrix(.10482 0 0 .10482 25.906 859.39)" filter="url(#littleBlur)" stroke="#000" stroke-width="8.7" fill="none"/>
  </g>
 </g>
 <g id="Trustworthy" transform="translate(-14.998 -837.36)">
  <path d="m311.43 483.79c0 33.137-26.863 60-60 60s-60-26.863-60-60 26.863-60 60-60 60 26.863 60 60z" transform="matrix(.18815 0 0 .18815 4.954 779.07)" filter="url(#bigBlur)" fill="url(#radialGradient9119)"/>
  <path d="m311.43 483.79c0 33.137-26.863 60-60 60s-60-26.863-60-60 26.863-60 60-60 60 26.863 60 60z" transform="matrix(.10482 0 0 .10482 25.906 819.39)" filter="url(#littleBlur)" stroke="#000" stroke-width="8.7" fill="none"/>
  <g transform="translate(0,-40)">
   <path fill="url(#radialGradient9121)" d="m58.55 910.1c0 3.4734-2.8158 6.2892-6.2892 6.2892s-6.2892-2.8158-6.2892-6.2892 2.8158-6.2892 6.2892-6.2892 6.2892 2.8158 6.2892 6.2892z"/>
   <path d="m311.43 483.79c0 33.137-26.863 60-60 60s-60-26.863-60-60 26.863-60 60-60 60 26.863 60 60z" transform="matrix(.10482 0 0 .10482 25.906 859.39)" filter="url(#littleBlur)" stroke="#000" stroke-width="8.7" fill="none"/>
  </g>
 </g>
 <g id="Stoic" transform="translate(45.002 -777.36)">
  <path d="m311.43 483.79c0 33.137-26.863 60-60 60s-60-26.863-60-60 26.863-60 60-60 60 26.863 60 60z" transform="matrix(.18815 0 0 .18815 4.954 779.07)" filter="url(#bigBlur)" fill="url(#radialGradient9119)"/>
  <path d="m311.43 483.79c0 33.137-26.863 60-60 60s-60-26.863-60-60 26.863-60 60-60 60 26.863 60 60z" transform="matrix(.10482 0 0 .10482 25.906 819.39)" filter="url(#littleBlur)" stroke="#000" stroke-width="8.7" fill="none"/>
  <g transform="translate(0,-40)">
   <path fill="url(#radialGradient9121)" d="m58.55 910.1c0 3.4734-2.8158 6.2892-6.2892 6.2892s-6.2892-2.8158-6.2892-6.2892 2.8158-6.2892 6.2892-6.2892 6.2892 2.8158 6.2892 6.2892z"/>
   <path d="m311.43 483.79c0 33.137-26.863 60-60 60s-60-26.863-60-60 26.863-60 60-60 60 26.863 60 60z" transform="matrix(.10482 0 0 .10482 25.906 859.39)" filter="url(#littleBlur)" stroke="#000" stroke-width="8.7" fill="none"/>
  </g>
 </g>
 <g id="WeatherEye" transform="translate(45.002 -837.36)">
  <path d="m311.43 483.79c0 33.137-26.863 60-60 60s-60-26.863-60-60 26.863-60 60-60 60 26.863 60 60z" transform="matrix(.18815 0 0 .18815 4.954 779.07)" filter="url(#bigBlur)" fill="url(#radialGradient9119)"/>
  <path d="m311.43 483.79c0 33.137-26.863 60-60 60s-60-26.863-60-60 26.863-60 60-60 60 26.863 60 60z" transform="matrix(.10482 0 0 .10482 25.906 819.39)" filter="url(#littleBlur)" stroke="#000" stroke-width="8.7" fill="none"/>
  <g transform="translate(0,-40)">
   <path fill="url(#radialGradient9121)" d="m58.55 910.1c0 3.4734-2.8158 6.2892-6.2892 6.2892s-6.2892-2.8158-6.2892-6.2892 2.8158-6.2892 6.2892-6.2892 6.2892 2.8158 6.2892 6.2892z"/>
   <path d="m311.43 483.79c0 33.137-26.863 60-60 60s-60-26.863-60-60 26.863-60 60-60 60 26.863 60 60z" transform="matrix(.10482 0 0 .10482 25.906 859.39)" filter="url(#littleBlur)" stroke="#000" stroke-width="8.7" fill="none"/>
  </g>
 </g>
 <g id="Reliable2" transform="translate(105 -777.36)">
  <path d="m311.43 483.79c0 33.137-26.863 60-60 60s-60-26.863-60-60 26.863-60 60-60 60 26.863 60 60z" transform="matrix(.18815 0 0 .18815 4.954 779.07)" filter="url(#bigBlur)" fill="url(#radialGradient9119)"/>
  <path d="m311.43 483.79c0 33.137-26.863 60-60 60s-60-26.863-60-60 26.863-60 60-60 60 26.863 60 60z" transform="matrix(.10482 0 0 .10482 25.906 819.39)" filter="url(#littleBlur)" stroke="#000" stroke-width="8.7" fill="none"/>
  <g transform="translate(0,-40)">
   <path fill="url(#radialGradient9121)" d="m58.55 910.1c0 3.4734-2.8158 6.2892-6.2892 6.2892s-6.2892-2.8158-6.2892-6.2892 2.8158-6.2892 6.2892-6.2892 6.2892 2.8158 6.2892 6.2892z"/>
   <path d="m311.43 483.79c0 33.137-26.863 60-60 60s-60-26.863-60-60 26.863-60 60-60 60 26.863 60 60z" transform="matrix(.10482 0 0 .10482 25.906 859.39)" filter="url(#littleBlur)" stroke="#000" stroke-width="8.7" fill="none"/>
  </g>
 </g>
 <g id="Trustworthy2" transform="translate(105 -837.36)">
  <path d="m311.43 483.79c0 33.137-26.863 60-60 60s-60-26.863-60-60 26.863-60 60-60 60 26.863 60 60z" transform="matrix(.18815 0 0 .18815 4.954 779.07)" filter="url(#bigBlur)" fill="url(#radialGradient9119)"/>
  <path d="m311.43 483.79c0 33.137-26.863 60-60 60s-60-26.863-60-60 26.863-60 60-60 60 26.863 60 60z" transform="matrix(.10482 0 0 .10482 25.906 819.39)" filter="url(#littleBlur)" stroke="#000" stroke-width="8.7" fill="none"/>
  <g transform="translate(0,-40)">
   <path fill="url(#radialGradient9121)" d="m58.55 910.1c0 3.4734-2.8158 6.2892-6.2892 6.2892s-6.2892-2.8158-6.2892-6.2892 2.8158-6.2892 6.2892-6.2892 6.2892 2.8158 6.2892 6.2892z"/>
   <path d="m311.43 483.79c0 33.137-26.863 60-60 60s-60-26.863-60-60 26.863-60 60-60 60 26.863 60 60z" transform="matrix(.10482 0 0 .10482 25.906 859.39)" filter="url(#littleBlur)" stroke="#000" stroke-width="8.7" fill="none"/>
  </g>
 </g>
 <g id="Organized" transform="translate(165 -777.36)">
  <path d="m311.43 483.79c0 33.137-26.863 60-60 60s-60-26.863-60-60 26.863-60 60-60 60 26.863 60 60z" transform="matrix(.18815 0 0 .18815 4.954 779.07)" filter="url(#bigBlur)" fill="url(#radialGradient9119)"/>
  <path d="m311.43 483.79c0 33.137-26.863 60-60 60s-60-26.863-60-60 26.863-60 60-60 60 26.863 60 60z" transform="matrix(.10482 0 0 .10482 25.906 819.39)" filter="url(#littleBlur)" stroke="#000" stroke-width="8.7" fill="none"/>
  <g transform="translate(0,-40)">
   <path fill="url(#radialGradient9121)" d="m58.55 910.1c0 3.4734-2.8158 6.2892-6.2892 6.2892s-6.2892-2.8158-6.2892-6.2892 2.8158-6.2892 6.2892-6.2892 6.2892 2.8158 6.2892 6.2892z"/>
   <path d="m311.43 483.79c0 33.137-26.863 60-60 60s-60-26.863-60-60 26.863-60 60-60 60 26.863 60 60z" transform="matrix(.10482 0 0 .10482 25.906 859.39)" filter="url(#littleBlur)" stroke="#000" stroke-width="8.7" fill="none"/>
  </g>
 </g>
 <g id="Navigator" transform="translate(165 -837.36)">
  <path d="m311.43 483.79c0 33.137-26.863 60-60 60s-60-26.863-60-60 26.863-60 60-60 60 26.863 60 60z" transform="matrix(.18815 0 0 .18815 4.954 779.07)" filter="url(#bigBlur)" fill="url(#radialGradient9119)"/>
  <path d="m311.43 483.79c0 33.137-26.863 60-60 60s-60-26.863-60-60 26.863-60 60-60 60 26.863 60 60z" transform="matrix(.10482 0 0 .10482 25.906 819.39)" filter="url(#littleBlur)" stroke="#000" stroke-width="8.7" fill="none"/>
  <g transform="translate(0,-40)">
   <path fill="url(#radialGradient9121)" d="m58.55 910.1c0 3.4734-2.8158 6.2892-6.2892 6.2892s-6.2892-2.8158-6.2892-6.2892 2.8158-6.2892 6.2892-6.2892 6.2892 2.8158 6.2892 6.2892z"/>
   <path d="m311.43 483.79c0 33.137-26.863 60-60 60s-60-26.863-60-60 26.863-60 60-60 60 26.863 60 60z" transform="matrix(.10482 0 0 .10482 25.906 859.39)" filter="url(#littleBlur)" stroke="#000" stroke-width="8.7" fill="none"/>
  </g>
 </g>
 <g id="WeatherEye2" transform="translate(225 -777.36)">
  <path d="m311.43 483.79c0 33.137-26.863 60-60 60s-60-26.863-60-60 26.863-60 60-60 60 26.863 60 60z" transform="matrix(.18815 0 0 .18815 4.954 779.07)" filter="url(#bigBlur)" fill="url(#radialGradient9119)"/>
  <path d="m311.43 483.79c0 33.137-26.863 60-60 60s-60-26.863-60-60 26.863-60 60-60 60 26.863 60 60z" transform="matrix(.10482 0 0 .10482 25.906 819.39)" filter="url(#littleBlur)" stroke="#000" stroke-width="8.7" fill="none"/>
  <g transform="translate(0,-40)">
   <path fill="url(#radialGradient9121)" d="m58.55 910.1c0 3.4734-2.8158 6.2892-6.2892 6.2892s-6.2892-2.8158-6.2892-6.2892 2.8158-6.2892 6.2892-6.2892 6.2892 2.8158 6.2892 6.2892z"/>
   <path d="m311.43 483.79c0 33.137-26.863 60-60 60s-60-26.863-60-60 26.863-60 60-60 60 26.863 60 60z" transform="matrix(.10482 0 0 .10482 25.906 859.39)" filter="url(#littleBlur)" stroke="#000" stroke-width="8.7" fill="none"/>
  </g>
 </g>
 <g id="Stoic2" transform="translate(225 -837.36)">
  <path d="m311.43 483.79c0 33.137-26.863 60-60 60s-60-26.863-60-60 26.863-60 60-60 60 26.863 60 60z" transform="matrix(.18815 0 0 .18815 4.954 779.07)" filter="url(#bigBlur)" fill="url(#radialGradient9119)"/>
  <path d="m311.43 483.79c0 33.137-26.863 60-60 60s-60-26.863-60-60 26.863-60 60-60 60 26.863 60 60z" transform="matrix(.10482 0 0 .10482 25.906 819.39)" filter="url(#littleBlur)" stroke="#000" stroke-width="8.7" fill="none"/>
  <g transform="translate(0,-40)">
   <path fill="url(#radialGradient9121)" d="m58.55 910.1c0 3.4734-2.8158 6.2892-6.2892 6.2892s-6.2892-2.8158-6.2892-6.2892 2.8158-6.2892 6.2892-6.2892 6.2892 2.8158 6.2892 6.2892z"/>
   <path d="m311.43 483.79c0 33.137-26.863 60-60 60s-60-26.863-60-60 26.863-60 60-60 60 26.863 60 60z" transform="matrix(.10482 0 0 .10482 25.906 859.39)" filter="url(#littleBlur)" stroke="#000" stroke-width="8.7" fill="none"/>
  </g>
 </g>
 <g id="Organized2" transform="translate(285 -777.36)">
  <path d="m311.43 483.79c0 33.137-26.863 60-60 60s-60-26.863-60-60 26.863-60 60-60 60 26.863 60 60z" transform="matrix(.18815 0 0 .18815 4.954 779.07)" filter="url(#bigBlur)" fill="url(#radialGradient9119)"/>
  <path d="m311.43 483.79c0 33.137-26.863 60-60 60s-60-26.863-60-60 26.863-60 60-60 60 26.863 60 60z" transform="matrix(.10482 0 0 .10482 25.906 819.39)" filter="url(#littleBlur)" stroke="#000" stroke-width="8.7" fill="none"/>
  <g transform="translate(0,-40)">
   <path fill="url(#radialGradient9121)" d="m58.55 910.1c0 3.4734-2.8158 6.2892-6.2892 6.2892s-6.2892-2.8158-6.2892-6.2892 2.8158-6.2892 6.2892-6.2892 6.2892 2.8158 6.2892 6.2892z"/>
   <path d="m311.43 483.79c0 33.137-26.863 60-60 60s-60-26.863-60-60 26.863-60 60-60 60 26.863 60 60z" transform="matrix(.10482 0 0 .10482 25.906 859.39)" filter="url(#littleBlur)" stroke="#000" stroke-width="8.7" fill="none"/>
  </g>
 </g>
 <g id="Navigator2" transform="translate(285 -837.36)">
  <path d="m311.43 483.79c0 33.137-26.863 60-60 60s-60-26.863-60-60 26.863-60 60-60 60 26.863 60 60z" transform="matrix(.18815 0 0 .18815 4.954 779.07)" filter="url(#bigBlur)" fill="url(#radialGradient9119)"/>
  <path d="m311.43 483.79c0 33.137-26.863 60-60 60s-60-26.863-60-60 26.863-60 60-60 60 26.863 60 60z" transform="matrix(.10482 0 0 .10482 25.906 819.39)" filter="url(#littleBlur)" stroke="#000" stroke-width="8.7" fill="none"/>
  <g transform="translate(0,-40)">
   <path fill="url(#radialGradient9121)" d="m58.55 910.1c0 3.4734-2.8158 6.2892-6.2892 6.2892s-6.2892-2.8158-6.2892-6.2892 2.8158-6.2892 6.2892-6.2892 6.2892 2.8158 6.2892 6.2892z"/>
   <path d="m311.43 483.79c0 33.137-26.863 60-60 60s-60-26.863-60-60 26.863-60 60-60 60 26.863 60 60z" transform="matrix(.10482 0 0 .10482 25.906 859.39)" filter="url(#littleBlur)" stroke="#000" stroke-width="8.7" fill="none"/>
  </g>
 </g>
 <g id="Apprentice" transform="translate(15.002 -807.36)">
  <path d="m311.43 483.79c0 33.137-26.863 60-60 60s-60-26.863-60-60 26.863-60 60-60 60 26.863 60 60z" transform="matrix(.18815 0 0 .18815 4.954 779.07)" filter="url(#bigBlur)" fill="url(#radialGradient9119)"/>
  <path d="m311.43 483.79c0 33.137-26.863 60-60 60s-60-26.863-60-60 26.863-60 60-60 60 26.863 60 60z" transform="matrix(.10482 0 0 .10482 25.906 819.39)" filter="url(#littleBlur)" stroke="#000" stroke-width="8.7" fill="none"/>
  <g transform="translate(0,-40)">
   <path fill="url(#radialGradient9121)" d="m58.55 910.1c0 3.4734-2.8158 6.2892-6.2892 6.2892s-6.2892-2.8158-6.2892-6.2892 2.8158-6.2892 6.2892-6.2892 6.2892 2.8158 6.2892 6.2892z"/>
   <path d="m311.43 483.79c0 33.137-26.863 60-60 60s-60-26.863-60-60 26.863-60 60-60 60 26.863 60 60z" transform="matrix(.10482 0 0 .10482 25.906 859.39)" filter="url(#littleBlur)" stroke="#000" stroke-width="8.7" fill="none"/>
  </g>
 </g>
 <g id="Journeyman" transform="translate(135 -807.36)">
  <path d="m311.43 483.79c0 33.137-26.863 60-60 60s-60-26.863-60-60 26.863-60 60-60 60 26.863 60 60z" transform="matrix(.18815 0 0 .18815 4.954 779.07)" filter="url(#bigBlur)" fill="url(#radialGradient9119)"/>
  <path d="m311.43 483.79c0 33.137-26.863 60-60 60s-60-26.863-60-60 26.863-60 60-60 60 26.863 60 60z" transform="matrix(.10482 0 0 .10482 25.906 819.39)" filter="url(#littleBlur)" stroke="#000" stroke-width="8.7" fill="none"/>
  <g transform="translate(0,-40)">
   <path fill="url(#radialGradient9121)" d="m58.55 910.1c0 3.4734-2.8158 6.2892-6.2892 6.2892s-6.2892-2.8158-6.2892-6.2892 2.8158-6.2892 6.2892-6.2892 6.2892 2.8158 6.2892 6.2892z"/>
   <path d="m311.43 483.79c0 33.137-26.863 60-60 60s-60-26.863-60-60 26.863-60 60-60 60 26.863 60 60z" transform="matrix(.10482 0 0 .10482 25.906 859.39)" filter="url(#littleBlur)" stroke="#000" stroke-width="8.7" fill="none"/>
  </g>
 </g>
 <g id="Master" transform="translate(255 -807.36)">
  <path d="m311.43 483.79c0 33.137-26.863 60-60 60s-60-26.863-60-60 26.863-60 60-60 60 26.863 60 60z" transform="matrix(.18815 0 0 .18815 4.954 779.07)" filter="url(#bigBlur)" fill="url(#radialGradient9119)"/>
  <path d="m311.43 483.79c0 33.137-26.863 60-60 60s-60-26.863-60-60 26.863-60 60-60 60 26.863 60 60z" transform="matrix(.10482 0 0 .10482 25.906 819.39)" filter="url(#littleBlur)" stroke="#000" stroke-width="8.7" fill="none"/>
  <g transform="translate(0,-40)">
   <path fill="url(#radialGradient9121)" d="m58.55 910.1c0 3.4734-2.8158 6.2892-6.2892 6.2892s-6.2892-2.8158-6.2892-6.2892 2.8158-6.2892 6.2892-6.2892 6.2892 2.8158 6.2892 6.2892z"/>
   <path d="m311.43 483.79c0 33.137-26.863 60-60 60s-60-26.863-60-60 26.863-60 60-60 60 26.863 60 60z" transform="matrix(.10482 0 0 .10482 25.906 859.39)" filter="url(#littleBlur)" stroke="#000" stroke-width="8.7" fill="none"/>
  </g>
 </g>
</svg>
